<svg version="1.1" id="Layer_1" xmlns="http://www.w3.org/2000/svg" xmlns:xlink="http://www.w3.org/1999/xlink" x="0px" y="0px"
	 width="100%" viewBox="0 0 284 320" enable-background="new 0 0 284 320" xml:space="preserve">
<path fill="#5C8DBC" opacity="1.000000" stroke="none" 
	d="
M131.000000,1.000001 
	C138.687576,1.000000 146.375168,1.000000 154.201050,1.260922 
	C154.650574,1.910709 154.882462,2.437659 155.284424,2.668590 
	C173.076294,12.890161 190.879105,23.092751 208.689331,33.282368 
	C229.625626,45.260475 250.703842,57.000435 271.406586,69.369148 
	C275.976379,72.099335 279.228485,77.035027 282.709137,80.961433 
	C273.782135,85.628792 265.210358,90.248268 256.690369,94.961342 
	C245.842499,100.962151 235.036530,107.038727 223.977478,112.822189 
	C223.010849,111.448128 222.281235,110.333214 221.547363,109.221092 
	C194.538330,68.289734 141.440384,54.646324 98.530525,77.611801 
	C55.212769,100.795586 36.917423,153.068375 56.296696,198.285339 
	C57.598530,201.322845 58.913849,204.354584 60.060566,207.729752 
	C40.902714,219.099396 21.907188,230.128296 2.547010,240.955582 
	C1.788238,240.835968 1.394119,240.917984 1.000000,241.000000 
	C1.000000,187.645767 1.000000,134.291550 1.238529,80.802094 
	C4.501049,77.715973 7.116900,74.106651 10.622921,71.933372 
	C22.821175,64.372040 35.283039,57.230366 47.726566,50.071476 
	C75.014755,34.372318 102.357040,18.767197 129.646500,3.070222 
	C130.283752,2.703668 130.556976,1.704236 131.000000,1.000001 
z"/>
<path fill="#1B4775" opacity="1.000000" stroke="none" 
	d="
M2.911664,241.157211 
	C21.907188,230.128296 40.902714,219.099396 60.349800,207.931305 
	C61.553764,208.885178 62.339386,209.956985 63.053825,211.074341 
	C101.484688,271.177673 188.101151,269.531036 224.619034,208.095963 
	C234.139191,213.460785 243.308395,218.778641 252.533615,223.997482 
	C262.612396,229.699188 272.743011,235.309250 282.794312,241.296066 
	C279.245422,245.063889 276.232513,249.271271 272.170319,251.778824 
	C260.460968,259.006897 248.328217,265.549042 236.361984,272.360962 
	C221.949463,280.565521 207.492859,288.694000 193.138962,296.999908 
	C182.007996,303.440826 170.987228,310.073395 159.961868,316.694672 
	C157.867935,317.952209 155.981949,319.556000 154.000000,321.000000 
	C146.645752,321.000000 139.291504,321.000000 131.504852,320.642944 
	C130.600204,319.855316 130.186249,319.325531 129.647171,319.008636 
	C116.038498,311.009003 102.471848,302.935699 88.785049,295.071625 
	C64.343758,281.028290 39.802185,267.159485 15.365795,253.107712 
	C10.285712,250.186478 4.785127,247.508148 2.911664,241.157211 
z"/>
<path fill="#1C5A8F" opacity="1.000000" stroke="none" 
	d="
M282.851044,240.959244 
	C272.743011,235.309250 262.612396,229.699188 252.533615,223.997482 
	C243.308395,218.778641 234.139191,213.460785 224.424438,207.799805 
	C216.010300,202.778595 208.157104,198.073975 200.210144,193.533478 
	C194.602081,190.329300 188.866791,187.347794 182.944000,184.006226 
	C174.260956,178.726105 165.756607,173.812546 157.410568,168.643402 
	C153.110535,165.980209 149.092224,162.862167 145.168671,159.695190 
	C147.073868,158.378021 148.732086,157.273163 150.444244,156.259460 
	C161.289917,149.838196 172.147507,143.437103 183.354156,136.989578 
	C191.321457,132.610870 198.979645,128.346649 206.536118,123.909210 
	C212.493210,120.410980 218.325027,116.699425 224.212494,113.082626 
	C235.036530,107.038727 245.842499,100.962151 256.690369,94.961342 
	C265.210358,90.248268 273.782135,85.628792 283.052094,81.046097 
	C284.182190,81.082977 284.591095,81.041489 285.000000,81.000000 
	C285.000000,133.687561 285.000000,186.375122 284.703094,239.342285 
	C283.887817,240.067688 283.369446,240.513474 282.851044,240.959244 
M215.977478,174.302841 
	C216.664169,175.189209 217.273361,176.750702 218.051529,176.839996 
	C220.787109,177.153992 223.580765,176.961960 227.018051,176.961960 
	C227.018051,173.073029 227.018051,169.709320 227.018051,165.847229 
	C230.912247,165.847229 234.132843,165.847229 237.268311,165.847229 
	C237.268311,162.090897 237.268311,158.880173 237.268311,155.536499 
	C233.630905,155.367981 230.397995,155.218216 226.881500,155.055298 
	C226.881500,151.478836 226.881500,148.360947 226.881500,144.931351 
	C223.157120,144.931351 219.751053,144.931351 215.856750,144.931351 
	C215.856750,148.404236 215.856750,151.652939 215.856750,155.403870 
	C212.129730,155.403870 208.884445,155.403870 205.399445,155.403870 
	C205.399445,159.141083 205.399445,162.362228 205.399445,165.839828 
	C209.028671,166.039154 212.402603,166.224472 215.971466,166.420471 
	C215.971466,169.071869 215.971466,171.223343 215.977478,174.302841 
M246.901764,166.095520 
	C249.514877,166.095520 252.127991,166.095520 254.934311,166.095520 
	C255.162476,170.018250 255.358795,173.393188 255.546295,176.616547 
	C259.352020,176.616547 262.593872,176.616547 266.313599,176.616547 
	C266.313599,173.002975 266.313599,169.754456 266.313599,166.028442 
	C270.035309,166.028442 273.282837,166.028442 276.706635,166.028442 
	C276.706635,162.303253 276.706635,159.077255 276.706635,155.332504 
	C273.175079,155.332504 269.924408,155.332504 266.164795,155.332504 
	C266.164795,151.577667 266.164795,148.333084 266.164795,145.011353 
	C262.254700,145.011353 258.867035,145.011353 254.964142,145.011353 
	C254.964142,148.642349 254.964142,151.884476 254.964142,155.500488 
	C251.338806,155.500488 248.237503,155.500488 244.007706,155.500488 
	C244.745651,159.384415 245.378540,162.715317 246.901764,166.095520 
z"/>
<path fill="#000000" opacity="1.000000" stroke="none" 
	d="
M282.794312,241.296066 
	C283.369446,240.513474 283.887817,240.067688 284.703094,239.810944 
	C285.000000,266.944183 285.000000,293.888336 285.000000,321.000000 
	C241.645920,321.000000 198.291611,321.000000 154.468658,321.000000 
	C155.981949,319.556000 157.867935,317.952209 159.961868,316.694672 
	C170.987228,310.073395 182.007996,303.440826 193.138962,296.999908 
	C207.492859,288.694000 221.949463,280.565521 236.361984,272.360962 
	C248.328217,265.549042 260.460968,259.006897 272.170319,251.778824 
	C276.232513,249.271271 279.245422,245.063889 282.794312,241.296066 
z"/>
<path fill="#000000" opacity="1.000000" stroke="none" 
	d="
M285.000000,80.531342 
	C284.591095,81.041489 284.182190,81.082977 283.430328,81.039795 
	C279.228485,77.035027 275.976379,72.099335 271.406586,69.369148 
	C250.703842,57.000435 229.625626,45.260475 208.689331,33.282368 
	C190.879105,23.092751 173.076294,12.890161 155.284424,2.668590 
	C154.882462,2.437659 154.650574,1.910709 154.669678,1.260922 
	C198.242874,1.000000 241.485764,1.000000 285.000000,1.000000 
	C285.000000,27.353607 285.000000,53.708145 285.000000,80.531342 
z"/>
<path fill="#000000" opacity="1.000000" stroke="none" 
	d="
M2.547011,240.955582 
	C4.785127,247.508148 10.285712,250.186478 15.365795,253.107712 
	C39.802185,267.159485 64.343758,281.028290 88.785049,295.071625 
	C102.471848,302.935699 116.038498,311.009003 129.647171,319.008636 
	C130.186249,319.325531 130.600204,319.855316 131.036224,320.642944 
	C87.757118,321.000000 44.514244,321.000000 1.000000,321.000000 
	C1.000000,294.646393 1.000000,268.291870 1.000000,241.468658 
	C1.394119,240.917984 1.788238,240.835968 2.547011,240.955582 
z"/>
<path fill="#000000" opacity="1.000000" stroke="none" 
	d="
M130.531342,1.000001 
	C130.556976,1.704236 130.283752,2.703668 129.646500,3.070222 
	C102.357040,18.767197 75.014755,34.372318 47.726566,50.071476 
	C35.283039,57.230366 22.821175,64.372040 10.622921,71.933372 
	C7.116900,74.106651 4.501049,77.715973 1.238529,80.333435 
	C1.000000,53.721893 1.000000,27.443789 1.000000,1.000000 
	C44.020752,1.000000 87.041718,1.000000 130.531342,1.000001 
z"/>
<path fill="#FEFEFE" opacity="1.000000" stroke="none" 
	d="
M223.977478,112.822189 
	C218.325027,116.699425 212.493210,120.410980 206.536118,123.909210 
	C198.979645,128.346649 191.321457,132.610870 183.228302,136.672653 
	C172.389420,120.508362 157.660461,112.640526 138.810272,114.196800 
	C120.591942,115.700912 107.211594,125.336555 99.924698,142.140808 
	C93.958885,155.898514 93.792259,169.847000 102.153717,183.422729 
	C110.835220,199.416428 124.456100,207.394928 142.000870,207.680359 
	C159.993195,207.973083 173.964600,199.998474 183.188309,184.266876 
	C188.866791,187.347794 194.602081,190.329300 200.210144,193.533478 
	C208.157104,198.073975 216.010300,202.778595 224.098160,207.709229 
	C188.101151,269.531036 101.484688,271.177673 63.053825,211.074341 
	C62.339386,209.956985 61.553764,208.885178 60.512123,207.590561 
	C58.913849,204.354584 57.598530,201.322845 56.296696,198.285339 
	C36.917423,153.068375 55.212769,100.795586 98.530525,77.611801 
	C141.440384,54.646324 194.538330,68.289734 221.547363,109.221092 
	C222.281235,110.333214 223.010849,111.448128 223.977478,112.822189 
z"/>
<path fill="#5D8DBC" opacity="1.000000" stroke="none" 
	d="
M102.140556,183.079071 
	C93.792259,169.847000 93.958885,155.898514 99.924698,142.140808 
	C107.211594,125.336555 120.591942,115.700912 138.810272,114.196800 
	C157.660461,112.640526 172.389420,120.508362 182.875320,136.712433 
	C172.147507,143.437103 161.289917,149.838196 150.444244,156.259460 
	C148.732086,157.273163 147.073868,158.378021 144.825043,159.777084 
	C135.900162,164.821793 127.579430,169.600296 119.168236,174.213867 
	C113.559036,177.290527 107.820953,180.132217 102.140556,183.079071 
z"/>
<path fill="#1C4775" opacity="1.000000" stroke="none" 
	d="
M102.153717,183.422729 
	C107.820953,180.132217 113.559036,177.290527 119.168236,174.213867 
	C127.579430,169.600296 135.900162,164.821793 144.602997,160.031540 
	C149.092224,162.862167 153.110535,165.980209 157.410568,168.643402 
	C165.756607,173.812546 174.260956,178.726105 182.944000,184.006226 
	C173.964600,199.998474 159.993195,207.973083 142.000870,207.680359 
	C124.456100,207.394928 110.835220,199.416428 102.153717,183.422729 
z"/>
<path fill="#F5F8FA" opacity="1.000000" stroke="none" 
	d="
M215.974472,173.838821 
	C215.971466,171.223343 215.971466,169.071869 215.971466,166.420471 
	C212.402603,166.224472 209.028671,166.039154 205.399445,165.839828 
	C205.399445,162.362228 205.399445,159.141083 205.399445,155.403870 
	C208.884445,155.403870 212.129730,155.403870 215.856750,155.403870 
	C215.856750,151.652939 215.856750,148.404236 215.856750,144.931351 
	C219.751053,144.931351 223.157120,144.931351 226.881500,144.931351 
	C226.881500,148.360947 226.881500,151.478836 226.881500,155.055298 
	C230.397995,155.218216 233.630905,155.367981 237.268311,155.536499 
	C237.268311,158.880173 237.268311,162.090897 237.268311,165.847229 
	C234.132843,165.847229 230.912247,165.847229 227.018051,165.847229 
	C227.018051,169.709320 227.018051,173.073029 227.018051,176.961960 
	C223.580765,176.961960 220.787109,177.153992 218.051529,176.839996 
	C217.273361,176.750702 216.664169,175.189209 215.974472,173.838821 
z"/>
<path fill="#F7F9FB" opacity="1.000000" stroke="none" 
	d="
M246.456589,166.070877 
	C245.378540,162.715317 244.745651,159.384415 244.007706,155.500488 
	C248.237503,155.500488 251.338806,155.500488 254.964142,155.500488 
	C254.964142,151.884476 254.964142,148.642349 254.964142,145.011353 
	C258.867035,145.011353 262.254700,145.011353 266.164795,145.011353 
	C266.164795,148.333084 266.164795,151.577667 266.164795,155.332504 
	C269.924408,155.332504 273.175079,155.332504 276.706635,155.332504 
	C276.706635,159.077255 276.706635,162.303253 276.706635,166.028442 
	C273.282837,166.028442 270.035309,166.028442 266.313599,166.028442 
	C266.313599,169.754456 266.313599,173.002975 266.313599,176.616547 
	C262.593872,176.616547 259.352020,176.616547 255.546295,176.616547 
	C255.358795,173.393188 255.162476,170.018250 254.934311,166.095520 
	C252.127991,166.095520 249.514877,166.095520 246.456589,166.070877 
z"/>
</svg>