<svg version="1.1" id="Layer_1" xmlns="http://www.w3.org/2000/svg" xmlns:xlink="http://www.w3.org/1999/xlink" x="0px" y="0px"
	 width="100%" viewBox="0 0 269 326" enable-background="new 0 0 269 326" xml:space="preserve">
<path fill="#FFFFFF" opacity="1.000000" stroke="none" 
	d="
M270.000000,153.000000 
	C270.000000,210.913589 270.000000,268.827179 270.000000,327.000000 
	C230.312820,327.000000 190.625061,327.000000 150.477112,326.784760 
	C150.016891,326.569519 150.088257,326.144623 150.457886,326.112305 
	C151.564651,326.013275 152.301804,325.946594 153.266174,325.906555 
	C153.493408,325.933197 153.924164,325.778839 154.343216,325.850189 
	C156.857697,325.658142 158.953140,325.394745 161.412979,325.221863 
	C177.898346,324.410217 193.725571,322.371521 207.962997,313.867249 
	C206.750717,309.693695 207.396820,304.972229 201.933685,303.556213 
	C201.288437,303.173096 200.764038,303.041504 199.990997,302.612549 
	C186.252457,297.556244 172.302917,295.372314 157.806396,294.529663 
	C154.349228,294.197784 151.138229,294.209900 147.711578,294.144470 
	C147.495926,294.066925 147.040665,294.120087 146.611664,294.048096 
	C144.446747,294.024139 142.710831,294.072144 140.525223,294.072205 
	C137.058853,294.056213 134.042191,294.088196 130.596680,294.048096 
	C128.432236,294.024048 126.696632,294.072083 124.733818,294.093445 
	C124.506607,294.066772 124.075905,294.221130 123.688881,294.201416 
	C121.529076,294.489807 119.756302,294.797943 117.536644,295.048218 
	C112.398338,295.363647 107.706902,295.736969 102.678871,296.045776 
	C101.889374,296.024200 101.436478,296.067169 100.575226,296.061157 
	C95.774902,296.750427 91.382935,297.488617 86.606377,298.151123 
	C80.544144,300.036285 74.633125,301.509094 69.248947,304.083679 
	C62.770916,307.181366 62.229034,311.393860 67.411369,315.674103 
	C69.725677,317.585571 72.748009,318.986176 75.675629,319.749756 
	C89.528633,323.362946 103.606346,325.643494 118.238602,325.881592 
	C118.690880,325.897095 118.871864,325.868103 119.277420,325.892151 
	C119.501991,325.945129 119.958847,325.879883 120.279396,325.953278 
	C121.036591,326.065338 121.473228,326.103973 121.946320,326.355469 
	C121.982758,326.568359 122.000000,327.000000 122.000000,327.000000 
	C81.726151,327.000000 41.452297,327.000000 1.000000,327.000000 
	C1.000000,268.645905 1.000000,210.291611 1.353397,151.645386 
	C2.193568,153.903824 2.680341,156.454208 3.102776,159.411591 
	C5.007828,166.580276 6.977219,173.341965 8.981884,180.465195 
	C12.329816,185.588577 15.642473,190.350403 19.123871,195.414978 
	C24.481865,198.800217 29.395203,202.636703 36.384819,202.035156 
	C45.423313,202.236481 54.083233,202.236481 62.833927,202.236481 
	C62.833927,191.909592 62.833927,181.457108 62.905640,170.586731 
	C63.475460,162.636978 66.496498,156.109512 70.556610,149.848206 
	C75.119141,142.812088 82.134140,139.089142 89.445992,135.072006 
	C94.231453,134.288025 98.616692,133.560806 103.455719,132.902374 
	C107.273636,132.925217 110.637772,132.879303 114.455696,132.902328 
	C118.274017,132.925430 121.638550,132.879608 125.464569,132.902924 
	C130.619003,132.925873 135.311951,132.879700 140.468658,132.902771 
	C148.578903,132.981476 156.230530,133.163010 163.869873,132.934036 
	C168.257843,132.802505 172.831635,132.669678 176.966034,131.389008 
	C192.034485,126.721382 200.081070,115.101349 200.867020,98.887993 
	C201.477707,86.290382 200.889206,73.634636 200.905838,60.543137 
	C200.930038,55.388855 200.882095,50.696159 200.905304,45.550034 
	C200.595490,40.732044 200.214523,36.367489 199.903351,31.620537 
	C198.926666,28.493587 197.880203,25.749035 196.801163,22.660580 
	C194.547989,19.527922 192.327377,16.739166 189.944534,13.643745 
	C185.855438,10.947662 181.928589,8.558246 177.653534,5.993323 
	C173.870911,4.934185 170.436508,4.050552 166.581772,3.096168 
	C162.440964,2.350277 158.720490,1.675138 155.000000,1.000000 
	C193.262741,1.000000 231.525497,1.000000 270.000000,1.000000 
	C270.000000,41.687317 270.000000,82.375000 269.761230,123.514725 
	C269.522461,123.966766 269.048798,123.897331 269.031128,123.487793 
	C268.708344,121.041840 268.403198,119.005417 268.063019,116.551178 
	C267.375671,113.041718 266.723328,109.950058 266.044678,106.468147 
	C265.626984,104.054031 265.235596,102.030167 264.774780,99.652405 
	C263.507538,96.520584 262.309753,93.742661 261.053864,90.605003 
	C258.343353,86.128952 255.690903,82.012634 252.884308,77.594315 
	C248.714920,75.186478 244.820206,71.603050 240.660919,71.263870 
	C230.028290,70.396797 219.277832,70.974808 208.838028,70.974808 
	C207.960922,84.075043 207.059067,97.544716 205.987305,111.337296 
	C202.651459,119.523293 198.456573,126.731979 191.085876,131.313660 
	C186.287033,134.296677 181.045670,136.567825 175.575577,139.097656 
	C169.434113,139.410141 163.719589,139.782883 157.539581,140.095917 
	C138.908508,140.024902 120.734459,140.351395 102.580078,139.895081 
	C88.128204,139.531815 72.441078,152.272980 71.187584,165.202225 
	C69.973953,177.720184 70.432426,190.400269 70.100586,203.466431 
	C70.082634,207.617783 70.120590,211.311859 70.101929,215.460754 
	C70.083267,219.278229 70.121208,222.640884 70.101089,226.458694 
	C70.082375,230.276550 70.121727,233.639267 70.102745,237.398682 
	C70.663559,240.205093 71.282700,242.614792 71.957245,245.382507 
	C74.329102,249.198776 76.645546,252.657028 79.145439,256.397949 
	C82.753876,258.705383 86.178856,260.730133 89.779984,263.012329 
	C92.118141,264.244965 94.280159,265.220184 96.711807,266.481354 
	C99.972809,267.549835 102.964180,268.332397 106.183929,269.424927 
	C109.257256,270.191010 112.102188,270.647125 115.194321,271.426086 
	C123.725693,272.166687 132.005920,272.708069 140.294983,272.973206 
	C152.808380,273.373505 164.737976,270.229950 176.221146,265.772339 
	C186.941788,261.610748 196.920258,255.107315 199.424545,243.342224 
	C201.693253,232.683899 200.930756,221.380341 201.514908,210.166412 
	C198.955444,210.166412 197.479889,210.166412 195.544922,210.099121 
	C191.057922,210.076462 187.030334,210.121078 182.552338,210.099854 
	C179.067551,210.077744 176.033173,210.121490 172.538330,210.100220 
	C167.719589,210.078461 163.361313,210.121719 158.538483,210.099258 
	C151.384521,210.077179 144.695084,210.120834 137.603149,210.058319 
	C136.716660,207.809082 136.232681,205.666016 135.593826,202.837158 
	C140.138596,202.837158 143.574036,202.837158 147.472229,202.897903 
	C152.959686,202.917953 157.984390,202.877258 163.466431,202.899582 
	C167.950546,202.919891 171.977310,202.877182 176.454681,202.896439 
	C179.940155,202.917053 182.975006,202.875702 186.473877,202.896759 
	C193.295013,202.917313 199.652145,202.875504 206.473602,202.896622 
	C215.231598,202.973923 223.530151,203.173950 231.817734,202.956116 
	C242.393478,202.678162 251.932816,199.300568 256.707275,189.287201 
	C261.506653,179.221542 264.852509,168.462845 268.901245,157.620514 
	C269.311432,155.822128 269.655701,154.411057 270.000000,153.000000 
z"/>
<path fill="#FFFFFF" opacity="1.000000" stroke="none" 
	d="
M1.000001,122.000000 
	C1.000000,81.741875 1.000000,41.483753 1.000000,1.000000 
	C38.687260,1.000000 76.374969,1.000000 114.332253,1.366536 
	C109.735619,2.544046 104.869408,3.355021 99.595169,4.097809 
	C97.275032,4.365380 95.292610,4.483539 93.463036,5.074695 
	C85.681107,7.589112 77.985886,10.419976 73.651016,18.081240 
	C70.159401,24.252188 69.577667,31.056149 70.100494,38.467152 
	C70.079979,43.954060 70.125298,48.978531 70.104599,54.455803 
	C70.038589,57.501938 70.038589,60.095268 70.038589,62.830521 
	C74.091370,62.830521 77.548645,62.830521 81.469727,62.897770 
	C88.623901,62.920612 95.314278,62.876209 102.467079,62.898720 
	C107.954445,62.921814 112.979378,62.877991 118.466644,62.901794 
	C123.954247,62.923786 128.979523,62.878147 134.358231,63.070705 
	C134.807022,65.374809 134.902359,67.440712 135.028198,70.167244 
	C130.753021,70.167244 126.879501,70.167244 122.541809,70.095490 
	C115.053436,70.071358 108.029236,70.118965 100.540909,70.095306 
	C93.385574,70.071487 86.694366,70.118935 79.539322,70.095795 
	C72.718819,70.072487 66.362144,70.119743 59.542755,70.097076 
	C54.054447,70.073418 49.028847,70.119682 43.576321,70.097443 
	C36.653584,71.978645 29.451424,72.740723 23.796410,76.104103 
	C7.795754,85.620644 3.953179,101.947128 2.100401,119.348404 
	C1.689880,120.462646 1.344941,121.231323 1.000001,122.000000 
z"/>
<path fill="#4584B6" opacity="1.000000" stroke="none" 
	d="
M60.005463,70.167007 
	C66.362144,70.119743 72.718819,70.072487 79.495277,70.432190 
	C75.411362,76.324158 70.963737,81.856369 66.392075,87.284119 
	C57.444981,97.906639 48.414806,108.459137 39.445019,119.062622 
	C30.796421,129.286423 22.305635,139.647552 13.481589,149.717056 
	C10.453642,153.172379 6.628209,155.928833 3.167115,159.004578 
	C2.680341,156.454208 2.193568,153.903824 1.353397,151.176727 
	C1.000000,147.307098 1.000000,143.614182 1.368544,139.456009 
	C2.629896,138.631760 3.796224,138.517471 4.371485,137.874435 
	C8.349900,133.427292 12.228525,128.889847 16.095787,124.344475 
	C29.197193,108.945786 42.331814,93.574677 55.315468,78.077194 
	C57.258198,75.758316 58.460587,72.819199 60.005463,70.167007 
z"/>
<path fill="#4888BA" opacity="1.000000" stroke="none" 
	d="
M59.542755,70.097084 
	C58.460587,72.819199 57.258198,75.758316 55.315468,78.077194 
	C42.331814,93.574677 29.197193,108.945786 16.095787,124.344475 
	C12.228525,128.889847 8.349900,133.427292 4.371485,137.874435 
	C3.796224,138.517471 2.629896,138.631760 1.368544,138.995361 
	C1.000000,133.645065 1.000000,128.290146 1.000001,122.467606 
	C1.344941,121.231323 1.689880,120.462646 2.434126,119.302750 
	C3.268153,118.681427 3.822481,118.553818 4.120238,118.206352 
	C13.602287,107.141449 23.124924,96.110130 32.489746,84.946503 
	C36.500820,80.164978 40.175644,75.101379 44.003250,70.165947 
	C49.028847,70.119682 54.054447,70.073418 59.542755,70.097084 
z"/>
<path fill="#4381B3" opacity="1.000000" stroke="none" 
	d="
M102.004654,62.831802 
	C95.314278,62.876209 88.623901,62.920612 81.509987,62.565113 
	C82.230103,60.771183 83.384857,59.386093 84.515358,57.981480 
	C88.026344,53.619175 91.528114,49.249451 95.459770,44.932945 
	C98.113808,44.702667 100.431213,44.721729 102.552872,44.086735 
	C109.668823,41.956985 110.468056,36.237129 110.525917,29.995182 
	C111.893570,29.509392 113.193954,29.283012 113.866165,28.510221 
	C119.810394,21.676620 125.740341,14.824900 131.445755,7.792944 
	C133.023926,5.847840 133.836288,3.281377 135.000000,1.000000 
	C140.354935,1.000000 145.709854,1.000000 151.497467,1.348367 
	C140.315735,15.602176 128.633652,29.451910 117.117447,43.438217 
	C111.909859,49.762775 107.032066,56.358887 102.004654,62.831802 
z"/>
<path fill="#407DAF" opacity="1.000000" stroke="none" 
	d="
M102.467079,62.898720 
	C107.032066,56.358887 111.909859,49.762775 117.117447,43.438217 
	C128.633652,29.451910 140.315735,15.602176 151.965073,1.348367 
	C152.750000,1.000000 153.500000,1.000000 154.625000,1.000000 
	C158.720490,1.675138 162.440964,2.350277 166.538055,3.432606 
	C155.248047,17.754948 143.550949,31.644714 131.929626,45.597595 
	C127.203033,51.272472 122.641144,57.084526 118.004318,62.834167 
	C112.979378,62.877991 107.954445,62.921814 102.467079,62.898720 
z"/>
<path fill="#FFD744" opacity="1.000000" stroke="none" 
	d="
M270.000000,152.545898 
	C269.655701,154.411057 269.311432,155.822128 268.539490,157.624390 
	C266.481873,158.751602 264.686523,159.251526 263.247192,160.259705 
	C246.357025,172.090469 229.475143,183.934540 212.717331,195.951172 
	C210.154190,197.789154 208.229340,200.517258 206.009293,202.833694 
	C199.652145,202.875504 193.295013,202.917313 186.531784,202.569885 
	C186.839142,201.518814 187.490189,200.769852 188.275116,200.207886 
	C209.696869,184.871109 231.093185,169.498230 252.591904,154.269928 
	C258.227814,150.277817 264.188477,146.744202 270.000000,143.000000 
	C270.000000,146.030594 270.000000,149.061188 270.000000,152.545898 
z"/>
<path fill="#FFDA4D" opacity="1.000000" stroke="none" 
	d="
M269.048798,123.897339 
	C269.048798,123.897331 269.522461,123.966766 269.761230,123.983383 
	C270.000000,127.361671 270.000000,130.723343 269.627411,134.547348 
	C267.616547,135.734009 265.801361,136.208282 264.368225,137.222488 
	C253.549881,144.878433 242.809860,152.644974 232.039139,160.368301 
	C214.268387,173.111160 196.470474,185.816513 178.766708,198.651749 
	C177.500549,199.569733 176.909195,201.418503 176.004074,202.834473 
	C171.977310,202.877182 167.950546,202.919891 163.506363,202.564880 
	C164.144089,200.920547 164.995728,199.388702 166.284332,198.469315 
	C194.043350,178.663681 221.896011,158.989029 249.617249,139.130875 
	C256.301758,134.342422 262.582428,128.990265 269.048798,123.897339 
z"/>
<path fill="#FFD949" opacity="1.000000" stroke="none" 
	d="
M176.454681,202.896439 
	C176.909195,201.418503 177.500549,199.569733 178.766708,198.651749 
	C196.470474,185.816513 214.268387,173.111160 232.039139,160.368301 
	C242.809860,152.644974 253.549881,144.878433 264.368225,137.222488 
	C265.801361,136.208282 267.616547,135.734009 269.627411,135.004852 
	C270.000000,137.370560 270.000000,139.741104 270.000000,142.555847 
	C264.188477,146.744202 258.227814,150.277817 252.591904,154.269928 
	C231.093185,169.498230 209.696869,184.871109 188.275116,200.207886 
	C187.490189,200.769852 186.839142,201.518814 186.067780,202.507492 
	C182.975006,202.875702 179.940155,202.917053 176.454681,202.896439 
z"/>
<path fill="#4888BA" opacity="1.000000" stroke="none" 
	d="
M70.170624,54.002998 
	C70.125298,48.978531 70.079979,43.954060 70.458031,38.459942 
	C72.004822,37.380489 73.401352,37.015621 74.205284,36.119263 
	C78.073257,31.806541 81.899231,27.444736 85.517403,22.922174 
	C90.451630,16.754620 95.184189,10.425721 100.003204,4.165996 
	C104.869408,3.355021 109.735619,2.544046 114.800911,1.366536 
	C116.066673,1.000000 117.133339,1.000000 118.565071,1.348407 
	C113.606636,8.506721 108.283134,15.316628 102.575516,22.075649 
	C97.818260,20.865076 93.757797,21.512335 90.675385,24.912748 
	C87.591156,28.315147 85.686165,32.250889 87.496338,37.046822 
	C85.061913,39.152176 82.948883,41.203365 80.863960,43.282722 
	C77.290268,46.846874 73.734131,50.428635 70.170624,54.002998 
z"/>
<path fill="#4584B6" opacity="1.000000" stroke="none" 
	d="
M102.959641,22.126537 
	C108.283134,15.316628 113.606636,8.506721 118.965065,1.348407 
	C124.022095,1.000000 129.044189,1.000000 134.533142,1.000000 
	C133.836288,3.281377 133.023926,5.847840 131.445755,7.792944 
	C125.740341,14.824900 119.810394,21.676620 113.866165,28.510221 
	C113.193954,29.283012 111.893570,29.509392 110.373093,29.682968 
	C107.561012,26.960043 105.260323,24.543293 102.959641,22.126537 
z"/>
<path fill="#808080" opacity="1.000000" stroke="none" 
	d="
M150.088257,326.144623 
	C150.088257,326.144623 150.016891,326.569519 150.008453,326.784760 
	C140.979111,327.000000 131.958206,327.000000 122.468658,327.000000 
	C122.000000,327.000000 121.982758,326.568359 122.120018,326.016937 
	C125.507019,324.308014 128.756775,323.150543 132.449707,322.001160 
	C135.259750,322.003845 137.626602,321.998444 140.367233,322.036987 
	C143.856766,323.435486 146.972519,324.790070 150.088257,326.144623 
z"/>
<path fill="#3B77A7" opacity="1.000000" stroke="none" 
	d="
M123.005974,70.167244 
	C126.879501,70.167244 130.753021,70.167244 135.028198,70.167244 
	C134.902359,67.440712 134.807022,65.374809 134.357452,62.693466 
	C134.765167,60.128971 135.079254,57.799969 136.359619,56.290710 
	C147.032867,43.709373 157.957138,31.341076 168.638901,18.766832 
	C172.019104,14.787736 174.895035,10.380257 178.001740,6.168826 
	C181.928589,8.558246 185.855438,10.947662 189.660751,13.828636 
	C184.267563,20.500774 178.971420,26.660673 173.728958,32.865913 
	C159.507202,49.699520 145.361954,66.598091 131.083893,83.383720 
	C118.733101,97.903625 106.177887,112.250015 93.875671,126.810509 
	C91.838173,129.222031 90.634689,132.338242 89.045784,135.128784 
	C82.134140,139.089142 75.119141,142.812088 70.556610,149.848206 
	C66.496498,156.109512 63.475460,162.636978 62.547737,170.591064 
	C61.222977,171.378418 60.038593,171.494492 59.476826,172.146774 
	C52.894753,179.789062 46.340405,187.457870 39.939129,195.251434 
	C38.334839,197.204636 37.301823,199.627060 36.006252,201.833832 
	C29.395203,202.636703 24.481865,198.800217 19.166237,195.061127 
	C31.162535,179.967133 43.249172,165.499268 55.420349,151.102875 
	C63.760616,141.237747 72.237366,131.488159 80.619164,121.657974 
	C91.575577,108.808289 102.562408,95.983521 113.398422,83.032791 
	C116.827827,78.934113 119.815918,74.466187 123.005974,70.167244 
z"/>
<path fill="#FFE872" opacity="1.000000" stroke="none" 
	d="
M70.156494,203.009155 
	C70.432426,190.400269 69.973953,177.720184 71.187584,165.202225 
	C72.441078,152.272980 88.128204,139.531815 102.580078,139.895081 
	C120.734459,140.351395 138.908508,140.024902 157.493195,140.429749 
	C155.283340,143.008865 152.777557,145.366302 150.006027,147.352997 
	C126.785660,163.997986 103.540886,180.609344 80.233292,197.131836 
	C77.073456,199.371796 73.525002,201.063553 70.156494,203.009155 
z"/>
<path fill="#3E7BAC" opacity="1.000000" stroke="none" 
	d="
M122.541809,70.095490 
	C119.815918,74.466187 116.827827,78.934113 113.398422,83.032791 
	C102.562408,95.983521 91.575577,108.808289 80.619164,121.657974 
	C72.237366,131.488159 63.760616,141.237747 55.420349,151.102875 
	C43.249172,165.499268 31.162535,179.967133 18.997498,194.758377 
	C15.642473,190.350403 12.329816,185.588577 9.127901,180.156097 
	C20.913265,165.742294 32.543118,151.960815 44.273281,138.265244 
	C60.740826,119.038498 77.331367,99.916862 93.745552,80.644890 
	C96.487053,77.426086 98.601067,73.672859 101.005035,70.166580 
	C108.029236,70.118965 115.053436,70.071358 122.541809,70.095490 
z"/>
<path fill="#FFE466" opacity="1.000000" stroke="none" 
	d="
M70.159157,226.003540 
	C70.121208,222.640884 70.083267,219.278229 70.457176,215.453186 
	C71.889572,214.515350 73.010521,214.181870 73.914894,213.542175 
	C81.757027,207.995407 89.547195,202.375275 97.377480,196.811661 
	C120.605255,180.307800 143.878189,163.867111 167.040207,147.271561 
	C170.294693,144.939728 173.027985,141.880432 176.002533,139.157898 
	C181.045670,136.567825 186.287033,134.296677 191.085876,131.313660 
	C198.456573,126.731979 202.651459,119.523293 206.344040,111.326637 
	C207.905365,110.535095 209.049362,110.232819 209.957870,109.595062 
	C219.034805,103.223404 228.141129,96.889862 237.096664,90.350418 
	C242.539703,86.375839 247.732986,82.059258 253.038467,77.896317 
	C255.690903,82.012634 258.343353,86.128952 260.695831,90.646164 
	C260.081665,91.149246 259.716217,91.180115 259.460449,91.363724 
	C226.785934,114.820549 194.144684,138.323792 161.444275,161.744461 
	C137.219925,179.094437 112.943665,196.372299 88.635239,213.604279 
	C82.586349,217.892258 76.323601,221.878571 70.159157,226.003540 
z"/>
<path fill="#4280B1" opacity="1.000000" stroke="none" 
	d="
M100.540909,70.095314 
	C98.601067,73.672859 96.487053,77.426086 93.745552,80.644890 
	C77.331367,99.916862 60.740826,119.038498 44.273281,138.265244 
	C32.543118,151.960815 20.913265,165.742294 9.092627,179.794540 
	C6.977219,173.341965 5.007828,166.580276 3.102776,159.411591 
	C6.628209,155.928833 10.453642,153.172379 13.481589,149.717056 
	C22.305635,139.647552 30.796421,129.286423 39.445019,119.062622 
	C48.414806,108.459137 57.444981,97.906639 66.392075,87.284119 
	C70.963737,81.856369 75.411362,76.324158 79.959106,70.502762 
	C86.694366,70.118935 93.385574,70.071487 100.540909,70.095314 
z"/>
<path fill="#FFE160" opacity="1.000000" stroke="none" 
	d="
M70.101089,226.458694 
	C76.323601,221.878571 82.586349,217.892258 88.635239,213.604279 
	C112.943665,196.372299 137.219925,179.094437 161.444275,161.744461 
	C194.144684,138.323792 226.785934,114.820549 259.460449,91.363724 
	C259.716217,91.180115 260.081665,91.149246 260.753906,91.005905 
	C262.309753,93.742661 263.507538,96.520584 264.418091,99.656113 
	C257.668610,104.283272 251.072327,108.364494 244.766846,112.854141 
	C213.168106,135.353149 181.638855,157.949768 150.098740,180.531067 
	C132.171356,193.366241 114.313553,206.299118 96.338043,219.066391 
	C87.715759,225.190445 78.893028,231.032303 70.161079,237.001968 
	C70.121727,233.639267 70.082375,230.276550 70.101089,226.458694 
z"/>
<path fill="#306998" opacity="1.000000" stroke="none" 
	d="
M200.833694,61.004723 
	C200.889206,73.634636 201.477707,86.290382 200.867020,98.887993 
	C200.081070,115.101349 192.034485,126.721382 176.966034,131.389008 
	C172.831635,132.669678 168.257843,132.802505 163.869873,132.934036 
	C156.230530,133.163010 148.578903,132.981476 140.509537,132.560699 
	C147.727051,122.597374 155.188797,112.895348 163.051712,103.530159 
	C173.604477,90.961182 184.440033,78.628754 195.225632,66.257057 
	C196.900101,64.336372 198.954819,62.747200 200.833694,61.004723 
z"/>
<path fill="#FFDE57" opacity="1.000000" stroke="none" 
	d="
M147.009491,202.837158 
	C143.574036,202.837158 140.138596,202.837158 135.593826,202.837158 
	C136.232681,205.666016 136.716660,207.809082 137.557800,210.392883 
	C136.926712,211.898163 136.084930,213.166946 134.928146,213.996490 
	C118.516640,225.765518 102.017960,237.413635 85.664886,249.262833 
	C83.114532,251.110809 81.180832,253.809814 78.961983,256.115295 
	C76.645546,252.657028 74.329102,249.198776 72.319382,245.344299 
	C73.683266,244.477112 74.856796,244.169434 75.780579,243.511246 
	C99.237556,226.798096 122.677528,210.061035 146.101547,193.301712 
	C178.276215,170.281494 210.451828,147.262527 242.589371,124.190544 
	C250.491470,118.517502 258.247711,112.641243 266.070984,106.858406 
	C266.723328,109.950058 267.375671,113.041718 267.701172,116.591408 
	C266.058624,117.732399 264.639099,118.269760 263.444031,119.121925 
	C255.618683,124.701797 247.872192,130.392319 240.043686,135.967712 
	C213.044128,155.196609 186.007538,174.373535 159.022507,193.622772 
	C154.916489,196.551682 151.008865,199.758743 147.009491,202.837158 
z"/>
<path fill="#FFD43B" opacity="1.000000" stroke="none" 
	d="
M196.004318,210.166412 
	C197.479889,210.166412 198.955444,210.166412 201.514908,210.166412 
	C200.930756,221.380341 201.693253,232.683899 199.424545,243.342224 
	C196.920258,255.107315 186.941788,261.610748 176.221146,265.772339 
	C164.737976,270.229950 152.808380,273.373505 140.294983,272.973206 
	C132.005920,272.708069 123.725693,272.166687 115.343361,271.113464 
	C121.605179,265.716675 127.854149,260.797272 134.352844,256.233459 
	C142.742218,250.341949 151.331268,244.734772 159.898499,239.386108 
	C160.164627,240.551666 160.308670,241.356750 160.577713,242.117645 
	C162.835495,248.502899 168.611664,252.249268 174.075821,250.897675 
	C180.418762,249.328735 184.409180,243.934189 182.727676,237.112549 
	C181.901901,233.762527 178.305237,231.095505 176.004456,227.763367 
	C179.955582,224.308884 183.956131,221.317215 187.744354,218.077286 
	C190.637054,215.603287 193.260880,212.814926 196.004318,210.166412 
z"/>
<path fill="#FFE05C" opacity="1.000000" stroke="none" 
	d="
M266.044678,106.468147 
	C258.247711,112.641243 250.491470,118.517502 242.589371,124.190544 
	C210.451828,147.262527 178.276215,170.281494 146.101547,193.301712 
	C122.677528,210.061035 99.237556,226.798096 75.780579,243.511246 
	C74.856796,244.169434 73.683266,244.477112 72.263969,244.986298 
	C71.282700,242.614792 70.663559,240.205093 70.102745,237.398682 
	C78.893028,231.032303 87.715759,225.190445 96.338043,219.066391 
	C114.313553,206.299118 132.171356,193.366241 150.098740,180.531067 
	C181.638855,157.949768 213.168106,135.353149 244.766846,112.854141 
	C251.072327,108.364494 257.668610,104.283272 264.487488,100.010010 
	C265.235596,102.030167 265.626984,104.054031 266.044678,106.468147 
z"/>
<path fill="#3874A4" opacity="1.000000" stroke="none" 
	d="
M89.445999,135.072006 
	C90.634689,132.338242 91.838173,129.222031 93.875671,126.810509 
	C106.177887,112.250015 118.733101,97.903625 131.083893,83.383720 
	C145.361954,66.598091 159.507202,49.699520 173.728958,32.865913 
	C178.971420,26.660673 184.267563,20.500774 189.822998,14.135302 
	C192.327377,16.739166 194.547989,19.527922 196.467712,22.701078 
	C189.888474,29.859489 183.399918,36.452408 177.375839,43.445446 
	C165.066925,57.734173 153.062469,72.284676 140.829254,86.639282 
	C130.199936,99.111855 119.361626,111.406700 108.772499,123.912865 
	C106.502861,126.593384 104.907768,129.845047 103.001938,132.833603 
	C98.616692,133.560806 94.231453,134.288025 89.445999,135.072006 
z"/>
<path fill="#FFE56B" opacity="1.000000" stroke="none" 
	d="
M175.575577,139.097656 
	C173.027985,141.880432 170.294693,144.939728 167.040207,147.271561 
	C143.878189,163.867111 120.605255,180.307800 97.377480,196.811661 
	C89.547195,202.375275 81.757027,207.995407 73.914894,213.542175 
	C73.010521,214.181870 71.889572,214.515350 70.513794,214.998352 
	C70.120590,211.311859 70.082634,207.617783 70.100586,203.466431 
	C73.525002,201.063553 77.073456,199.371796 80.233292,197.131836 
	C103.540886,180.609344 126.785660,163.997986 150.006027,147.352997 
	C152.777557,145.366302 155.283340,143.008865 157.958679,140.489441 
	C163.719589,139.782883 169.434113,139.410141 175.575577,139.097656 
z"/>
<path fill="#FFDC52" opacity="1.000000" stroke="none" 
	d="
M147.472229,202.897903 
	C151.008865,199.758743 154.916489,196.551682 159.022507,193.622772 
	C186.007538,174.373535 213.044128,155.196609 240.043686,135.967712 
	C247.872192,130.392319 255.618683,124.701797 263.444031,119.121925 
	C264.639099,118.269760 266.058624,117.732399 267.736206,117.009216 
	C268.403198,119.005417 268.708344,121.041840 269.031128,123.487801 
	C262.582428,128.990265 256.301758,134.342422 249.617249,139.130875 
	C221.896011,158.989029 194.043350,178.663681 166.284332,198.469315 
	C164.995728,199.388702 164.144089,200.920547 163.049011,202.501862 
	C157.984390,202.877258 152.959686,202.917953 147.472229,202.897903 
z"/>
<path fill="#3771A1" opacity="1.000000" stroke="none" 
	d="
M103.455719,132.902374 
	C104.907768,129.845047 106.502861,126.593384 108.772499,123.912865 
	C119.361626,111.406700 130.199936,99.111855 140.829254,86.639282 
	C153.062469,72.284676 165.066925,57.734173 177.375839,43.445446 
	C183.399918,36.452408 189.888474,29.859489 196.500275,23.044981 
	C197.880203,25.749035 198.926666,28.493587 199.569122,31.661911 
	C197.775833,33.235775 196.178146,34.209156 195.029877,35.563545 
	C184.554688,47.919144 174.232071,60.404480 163.719788,72.728142 
	C149.339325,89.586548 134.778336,106.291161 120.430244,123.176849 
	C117.943489,126.103416 116.127655,129.600067 114.001923,132.833405 
	C110.637772,132.879303 107.273636,132.925217 103.455719,132.902374 
z"/>
<path fill="#356F9F" opacity="1.000000" stroke="none" 
	d="
M114.455704,132.902328 
	C116.127655,129.600067 117.943489,126.103416 120.430244,123.176849 
	C134.778336,106.291161 149.339325,89.586548 163.719788,72.728142 
	C174.232071,60.404480 184.554688,47.919144 195.029877,35.563545 
	C196.178146,34.209156 197.775833,33.235775 199.499329,32.044312 
	C200.214523,36.367489 200.595490,40.732044 200.561768,45.591743 
	C198.855881,46.812717 197.239029,47.255714 196.324493,48.308685 
	C188.290695,57.558498 180.378235,66.913742 172.437317,76.244118 
	C161.387512,89.227379 150.303574,102.181923 139.316620,115.218170 
	C134.441589,121.002502 129.768082,126.956696 125.003090,132.833786 
	C121.638550,132.879608 118.274017,132.925430 114.455704,132.902328 
z"/>
<path fill="#336C9C" opacity="1.000000" stroke="none" 
	d="
M125.464569,132.902924 
	C129.768082,126.956696 134.441589,121.002502 139.316620,115.218170 
	C150.303574,102.181923 161.387512,89.227379 172.437317,76.244118 
	C180.378235,66.913742 188.290695,57.558498 196.324493,48.308685 
	C197.239029,47.255714 198.855881,46.812717 200.490616,46.045177 
	C200.882095,50.696159 200.930038,55.388855 200.905838,60.543137 
	C198.954819,62.747200 196.900101,64.336372 195.225632,66.257057 
	C184.440033,78.628754 173.604477,90.961182 163.051712,103.530159 
	C155.188797,112.895348 147.727051,122.597374 140.045776,132.491455 
	C135.311951,132.879700 130.619003,132.925873 125.464569,132.902924 
z"/>
<path fill="#FFD43D" opacity="1.000000" stroke="none" 
	d="
M206.473602,202.896622 
	C208.229340,200.517258 210.154190,197.789154 212.717331,195.951172 
	C229.475143,183.934540 246.357025,172.090469 263.247192,160.259705 
	C264.686523,159.251526 266.481873,158.751602 268.473572,158.011719 
	C264.852509,168.462845 261.506653,179.221542 256.707275,189.287201 
	C251.932816,199.300568 242.393478,202.678162 231.817734,202.956116 
	C223.530151,203.173950 215.231598,202.973923 206.473602,202.896622 
z"/>
<path fill="#FFE771" opacity="1.000000" stroke="none" 
	d="
M252.884308,77.594315 
	C247.732986,82.059258 242.539703,86.375839 237.096664,90.350418 
	C228.141129,96.889862 219.034805,103.223404 209.957870,109.595062 
	C209.049362,110.232819 207.905365,110.535095 206.513947,111.003723 
	C207.059067,97.544716 207.960922,84.075043 208.838028,70.974808 
	C219.277832,70.974808 230.028290,70.396797 240.660919,71.263870 
	C244.820206,71.603050 248.714920,75.186478 252.884308,77.594315 
z"/>
<path fill="#FFDB4F" opacity="1.000000" stroke="none" 
	d="
M79.145439,256.397949 
	C81.180832,253.809814 83.114532,251.110809 85.664886,249.262833 
	C102.017960,237.413635 118.516640,225.765518 134.928146,213.996490 
	C136.084930,213.166946 136.926712,211.898163 137.960327,210.499054 
	C144.695084,210.120834 151.384521,210.077179 158.492310,210.433792 
	C158.420303,211.474167 158.049347,212.280991 157.422226,212.730194 
	C138.702866,226.139343 119.914482,239.452667 101.251480,252.939545 
	C97.147682,255.905182 93.475037,259.467407 89.603844,262.754913 
	C86.178856,260.730133 82.753876,258.705383 79.145439,256.397949 
z"/>
<path fill="#3D7AAB" opacity="1.000000" stroke="none" 
	d="
M177.653534,5.993320 
	C174.895035,10.380257 172.019104,14.787736 168.638901,18.766832 
	C157.957138,31.341076 147.032867,43.709373 136.359619,56.290710 
	C135.079254,57.799969 134.765167,60.128971 134.003998,62.455269 
	C128.979523,62.878147 123.954247,62.923786 118.466644,62.901794 
	C122.641144,57.084526 127.203033,51.272472 131.929626,45.597595 
	C143.550949,31.644714 155.248047,17.754948 166.958374,3.503359 
	C170.436508,4.050552 173.870911,4.934185 177.653534,5.993320 
z"/>
<path fill="#FFD641" opacity="1.000000" stroke="none" 
	d="
M159.834335,239.005142 
	C151.331268,244.734772 142.742218,250.341949 134.352844,256.233459 
	C127.854149,260.797272 121.605179,265.716675 115.096169,270.790619 
	C112.102188,270.647125 109.257256,270.191010 106.227005,269.069763 
	C107.184219,267.034332 108.099762,265.347443 109.503304,264.341248 
	C130.721512,249.130096 152.041992,234.061417 173.233276,218.813110 
	C176.745407,216.285934 179.758835,213.065674 183.002731,210.165710 
	C187.030334,210.121078 191.057922,210.076462 195.544922,210.099121 
	C193.260880,212.814926 190.637054,215.603287 187.744354,218.077286 
	C183.956131,221.317215 179.955582,224.308884 175.621918,227.716797 
	C173.670639,227.907852 172.129974,227.596146 170.619339,227.704147 
	C163.651031,228.202362 161.301437,233.203506 159.834335,239.005142 
z"/>
<path fill="#FFD949" opacity="1.000000" stroke="none" 
	d="
M89.779984,263.012329 
	C93.475037,259.467407 97.147682,255.905182 101.251480,252.939545 
	C119.914482,239.452667 138.702866,226.139343 157.422226,212.730194 
	C158.049347,212.280991 158.420303,211.474167 158.956848,210.499512 
	C163.361313,210.121719 167.719589,210.078461 172.478516,210.425552 
	C172.578140,211.198242 172.345963,211.676315 171.966324,211.949249 
	C146.799194,230.041855 121.620163,248.117920 96.442177,266.195435 
	C94.280159,265.220184 92.118141,264.244965 89.779984,263.012329 
z"/>
<path fill="#929292" opacity="1.000000" stroke="none" 
	d="
M132.006516,321.993042 
	C128.756775,323.150543 125.507019,324.308014 122.083572,325.804077 
	C121.473228,326.103973 121.036591,326.065338 120.204300,325.802307 
	C119.556709,325.665009 119.304779,325.752075 119.052841,325.839142 
	C118.871864,325.868103 118.690880,325.897095 118.174255,325.543701 
	C112.756805,321.290375 106.675964,322.730103 100.951813,321.851685 
	C100.809395,321.659607 100.719513,321.610291 100.629631,321.561005 
	C100.751350,321.708679 100.873070,321.856384 100.828331,322.242493 
	C99.775391,321.987457 98.888916,321.494049 98.144478,320.946869 
	C98.190788,320.927948 98.095062,320.962769 97.698212,320.974670 
	C95.932739,320.634918 94.468384,320.318054 93.194931,319.830688 
	C93.017097,318.835815 92.648369,318.011536 92.279648,317.187225 
	C92.032578,317.287079 91.785507,317.386902 91.538437,317.486755 
	C91.695160,317.998199 91.851891,318.509674 91.705475,318.995850 
	C90.918312,318.651337 90.434296,318.332062 89.963562,317.707550 
	C89.882141,316.876740 89.787430,316.351135 89.692719,315.825562 
	C89.511665,315.834595 89.330620,315.843658 89.149567,315.852692 
	C89.112183,316.572266 89.074799,317.291840 88.698090,318.011719 
	C87.906410,318.004364 87.454041,317.996704 87.036911,317.639404 
	C87.158684,316.356354 87.679245,315.014984 87.254036,314.562683 
	C85.700081,312.909668 83.830864,311.553040 81.738953,309.798309 
	C83.853127,308.714783 85.271851,307.987701 86.681847,307.265076 
	C86.068054,305.705933 85.537430,304.358032 85.251862,303.003540 
	C85.496933,302.996948 85.987068,302.983917 86.241348,303.148407 
	C87.997238,302.879639 89.498833,302.446411 91.250504,302.013763 
	C91.667297,302.014313 91.834015,302.014252 92.168716,302.240417 
	C93.225037,301.977142 94.113373,301.487640 95.308922,301.124268 
	C99.192856,301.403564 101.210693,299.928925 100.983582,296.110138 
	C101.436478,296.067169 101.889374,296.024200 102.638428,296.370911 
	C103.543129,297.496918 104.160721,298.875488 104.758781,298.867035 
	C109.168655,298.804993 113.574631,298.466156 117.983521,298.214355 
	C117.983521,297.591827 117.983521,296.348938 117.983521,295.106079 
	C119.756302,294.797943 121.529076,294.489807 123.782555,294.334045 
	C124.263252,294.486450 124.695038,294.509796 124.695038,294.509796 
	C124.695038,294.509796 124.961029,294.120087 124.961029,294.120087 
	C126.696632,294.072083 128.432236,294.024048 130.680939,294.429016 
	C134.583557,296.287079 137.968628,297.635010 140.974915,294.120148 
	C142.710831,294.072144 144.446747,294.024139 146.679443,294.196594 
	C147.176224,294.417053 147.589142,294.546173 147.589142,294.546173 
	C147.589142,294.546173 147.927231,294.222015 147.927231,294.222015 
	C151.138229,294.209900 154.349228,294.197784 157.624161,294.805969 
	C156.678818,295.776855 155.669540,296.127350 154.660263,296.477844 
	C155.408264,297.512878 156.290512,297.789825 157.173553,297.792328 
	C161.257767,297.803986 165.602066,296.332733 169.000641,300.250732 
	C168.999359,300.669922 168.999619,300.837585 168.921570,301.383362 
	C161.680618,303.847412 155.010101,300.094330 148.029663,299.976746 
	C147.616684,299.969818 147.244705,299.345886 146.797760,299.235687 
	C144.479782,298.664215 142.813232,299.082428 142.624786,302.035461 
	C137.837006,302.048492 133.420471,302.022430 128.991119,301.605927 
	C127.611725,300.575439 125.703308,299.009003 124.964005,299.441406 
	C118.869797,303.005829 111.934639,301.889435 105.521111,302.635651 
	C99.507805,303.335327 96.390862,307.099640 90.792252,310.119507 
	C94.008980,312.191681 95.983200,314.156342 98.332626,314.849731 
	C106.036102,317.123322 113.861244,318.999420 121.695816,320.781281 
	C122.227577,320.902252 123.224190,318.979340 124.253029,318.005249 
	C124.501450,318.003479 124.998283,317.997559 125.320145,318.161621 
	C127.285873,318.882599 128.988724,319.315521 130.545395,320.055817 
	C131.193054,320.363861 131.528885,321.327515 132.006516,321.993042 
M95.817039,318.738403 
	C95.974319,318.625214 96.131592,318.511993 96.288864,318.398743 
	C96.069527,318.421356 95.850189,318.443939 95.817039,318.738403 
M115.408569,321.484100 
	C115.408569,321.484100 115.520615,321.418579 115.408569,321.484100 
M153.519211,298.412140 
	C153.519211,298.412140 153.586945,298.523346 153.519211,298.412140 
z"/>
<path fill="#FFD845" opacity="1.000000" stroke="none" 
	d="
M96.711807,266.481354 
	C121.620163,248.117920 146.799194,230.041855 171.966324,211.949249 
	C172.345963,211.676315 172.578140,211.198242 172.938965,210.490570 
	C176.033173,210.121490 179.067551,210.077744 182.552338,210.099854 
	C179.758835,213.065674 176.745407,216.285934 173.233276,218.813110 
	C152.041992,234.061417 130.721512,249.130096 109.503304,264.341248 
	C108.099762,265.347443 107.184219,267.034332 105.998619,268.759796 
	C102.964180,268.332397 99.972809,267.549835 96.711807,266.481354 
z"/>
<path fill="#3772A2" opacity="1.000000" stroke="none" 
	d="
M36.384827,202.035156 
	C37.301823,199.627060 38.334839,197.204636 39.939129,195.251434 
	C46.340405,187.457870 52.894753,179.789062 59.476826,172.146774 
	C60.038593,171.494492 61.222977,171.378418 62.476028,171.008942 
	C62.833927,181.457108 62.833927,191.909592 62.833927,202.236481 
	C54.083233,202.236481 45.423313,202.236481 36.384827,202.035156 
z"/>
<path fill="#808080" opacity="1.000000" stroke="none" 
	d="
M101.004356,321.994446 
	C106.675964,322.730103 112.756805,321.290375 117.902954,325.499207 
	C103.606346,325.643494 89.528633,323.362946 75.675629,319.749756 
	C72.748009,318.986176 69.725677,317.585571 67.411369,315.674103 
	C62.229034,311.393860 62.770916,307.181366 69.248947,304.083679 
	C74.633125,301.509094 80.544144,300.036285 86.606873,298.337585 
	C86.991966,298.599731 86.995750,298.972717 86.993668,299.234253 
	C86.992554,299.670166 86.993530,299.844543 86.993393,300.258575 
	C86.992271,300.498230 86.990593,300.977539 86.746918,301.147644 
	C86.331192,301.873169 86.159134,302.428528 85.987068,302.983917 
	C85.987068,302.983917 85.496933,302.996948 84.962975,303.027618 
	C83.286011,303.038849 82.143005,303.019440 80.946297,302.858459 
	C80.804871,302.666962 80.717148,302.616943 80.629433,302.566925 
	C80.752953,302.711273 80.876472,302.855652 80.994781,303.373413 
	C80.661049,304.645905 80.485489,306.212646 79.977669,306.329010 
	C77.728897,306.844208 79.559692,311.192230 76.104332,310.275482 
	C78.228348,313.269257 80.352371,316.263062 82.556427,319.369659 
	C83.284996,318.310547 83.830482,317.517578 83.976357,317.305511 
	C85.218704,317.586212 86.110191,317.787628 87.001678,317.989044 
	C87.454041,317.996704 87.906410,318.004364 88.926079,318.010559 
	C89.493385,318.009064 89.950272,318.012787 89.950272,318.012787 
	C90.434296,318.332062 90.918312,318.651337 91.812393,319.212280 
	C92.422394,319.722870 92.682922,319.905304 93.004036,320.001221 
	C94.468384,320.318054 95.932739,320.634918 97.698547,320.975891 
	C98.000000,321.000000 98.002441,321.000610 98.002441,321.000610 
	C98.888916,321.494049 99.775391,321.987457 100.830933,322.240448 
	C101.000000,322.000000 101.004356,321.994446 101.004356,321.994446 
M70.701515,306.226440 
	C69.693993,307.993469 68.686462,309.760468 67.678940,311.527496 
	C68.078278,311.813812 68.477608,312.100128 68.876945,312.386444 
	C69.707642,312.047943 71.280319,311.616028 71.251328,311.385773 
	C71.025131,309.589233 75.364952,307.841461 70.701515,306.226440 
M83.518181,300.413971 
	C83.518181,300.413971 83.594574,300.536713 83.518181,300.413971 
z"/>
<path fill="#929292" opacity="1.000000" stroke="none" 
	d="
M150.457886,326.112305 
	C146.972519,324.790070 143.856766,323.435486 140.268188,321.736694 
	C142.197693,320.260834 144.600067,319.129181 147.250732,318.000366 
	C147.499023,318.003204 147.995636,318.006775 148.004868,318.370911 
	C148.447403,321.316315 149.315552,321.142273 151.604355,320.074310 
	C155.258621,318.369202 159.453979,316.343567 163.220566,316.681610 
	C170.081314,317.297424 175.270737,315.218140 180.891159,310.251129 
	C178.409866,308.314087 176.313690,306.865723 174.452469,305.160858 
	C173.136856,303.955750 172.139450,302.403198 170.999237,300.753784 
	C170.996948,300.333771 170.995453,300.165802 171.316452,299.862427 
	C172.759705,299.485901 173.880447,299.244751 175.205078,299.266388 
	C176.269821,299.687744 177.130692,299.846313 177.995407,300.002502 
	C177.999268,300.000153 177.995163,300.008667 177.997131,300.395752 
	C178.529816,301.850098 178.825699,303.598145 179.628998,303.875244 
	C185.270844,305.821503 187.003708,309.440399 184.671432,314.988525 
	C183.897354,315.015839 183.455063,315.032349 182.781631,315.177612 
	C182.704025,315.858490 182.857574,316.410675 182.878967,317.268127 
	C181.497421,318.382904 180.248001,319.192413 178.946533,319.859344 
	C178.806641,319.666412 178.718811,319.616028 178.630981,319.565674 
	C178.754593,319.710022 178.878204,319.854401 178.960037,320.302124 
	C177.683807,320.232880 176.449356,319.860229 174.728455,319.340759 
	C174.191574,319.994324 173.101135,321.321808 172.908493,321.556335 
	C167.499313,322.108612 163.029099,322.565002 158.317810,323.046021 
	C159.318710,323.810333 160.183640,324.470825 161.048569,325.131317 
	C158.953140,325.394745 156.857697,325.658142 154.249664,325.717407 
	C153.393845,325.360229 153.161133,325.482422 153.038940,325.879883 
	C152.301804,325.946594 151.564651,326.013275 150.457886,326.112305 
M179.824997,317.248291 
	C179.879990,317.414001 179.934982,317.579712 179.989960,317.745422 
	C180.044037,317.578461 180.098114,317.411499 179.824997,317.248291 
M156.406128,321.483612 
	C156.406128,321.483612 156.525528,321.412842 156.406128,321.483612 
z"/>
<path fill="#8F8F8F" opacity="1.000000" stroke="none" 
	d="
M185.003235,314.977722 
	C187.003708,309.440399 185.270844,305.821503 179.628998,303.875244 
	C178.825699,303.598145 178.529816,301.850098 178.276459,300.507446 
	C181.645599,300.952820 184.737350,301.673615 187.916580,302.414825 
	C187.923111,302.395020 188.168671,301.649353 188.456314,300.775909 
	C189.429703,304.898254 194.734238,308.288239 198.032379,307.289490 
	C198.375168,307.899750 198.682510,308.224152 198.989838,308.548553 
	C199.172989,308.336609 199.356140,308.124664 199.539276,307.912720 
	C199.027405,307.607239 198.515518,307.301788 198.001892,306.630524 
	C198.746658,305.146423 199.493149,304.028168 200.239655,302.909912 
	C200.764038,303.041504 201.288437,303.173096 201.915588,303.950195 
	C202.585907,305.936401 203.880081,307.482910 203.570679,308.575226 
	C202.914322,310.892456 201.422623,312.973053 200.273407,315.150665 
	C199.516891,314.434998 198.760391,313.719330 198.325134,312.964691 
	C199.097778,312.283966 199.549194,311.642212 200.140900,310.945618 
	C200.187241,310.926788 200.093323,310.962799 199.675659,311.033936 
	C198.900070,311.711487 198.448196,312.353912 197.759903,312.853394 
	C195.106674,314.100952 192.488083,315.237152 190.327911,316.951111 
	C188.010498,318.789825 186.189667,318.300964 185.003235,314.977722 
z"/>
<path fill="#808080" opacity="1.000000" stroke="none" 
	d="
M184.671432,314.988525 
	C186.189667,318.300964 188.010498,318.789825 190.327911,316.951111 
	C192.488083,315.237152 195.106674,314.100952 197.761734,312.855225 
	C198.000000,313.000000 198.003906,313.003662 198.003906,313.003662 
	C198.760391,313.719330 199.516891,314.434998 200.273407,315.150665 
	C201.422623,312.973053 202.914322,310.892456 203.570679,308.575226 
	C203.880081,307.482910 202.585907,305.936401 202.036438,304.201691 
	C207.396820,304.972229 206.750717,309.693695 207.962997,313.867249 
	C193.725571,322.371521 177.898346,324.410217 161.412979,325.221863 
	C160.183640,324.470825 159.318710,323.810333 158.317810,323.046021 
	C163.029099,322.565002 167.499313,322.108612 172.908493,321.556335 
	C173.101135,321.321808 174.191574,319.994324 174.728455,319.340759 
	C176.449356,319.860229 177.683807,320.232880 178.959122,320.302734 
	C179.000000,320.000000 178.998596,320.001892 178.998596,320.001892 
	C180.248001,319.192413 181.497421,318.382904 182.876862,316.949280 
	C183.008865,315.899719 183.010818,315.474274 183.012787,315.048889 
	C183.455063,315.032349 183.897354,315.015839 184.671432,314.988525 
z"/>
<path fill="#808080" opacity="1.000000" stroke="none" 
	d="
M197.996948,307.003662 
	C194.734238,308.288239 189.429703,304.898254 188.456314,300.775909 
	C188.168671,301.649353 187.923111,302.395020 187.916580,302.414825 
	C184.737350,301.673615 181.645599,300.952820 178.274506,300.120331 
	C177.995163,300.008667 177.999268,300.000153 177.869537,299.726349 
	C176.826950,299.302917 175.914078,299.153259 175.001205,299.003601 
	C173.880447,299.244751 172.759705,299.485901 170.984634,299.862793 
	C169.887619,299.998810 169.444901,299.998993 169.002197,299.999176 
	C165.602066,296.332733 161.257767,297.803986 157.173553,297.792328 
	C156.290512,297.789825 155.408264,297.512878 154.660263,296.477844 
	C155.669540,296.127350 156.678818,295.776855 157.870331,295.150024 
	C172.302917,295.372314 186.252457,297.556244 199.990997,302.612549 
	C199.493149,304.028168 198.746658,305.146423 198.000076,306.632355 
	C198.000000,307.000000 197.996948,307.003662 197.996948,307.003662 
z"/>
<path fill="#848484" opacity="1.000000" stroke="none" 
	d="
M86.990593,300.977539 
	C86.990593,300.977539 86.992271,300.498230 87.165359,300.164337 
	C87.224213,299.544525 87.109978,299.258636 86.995743,298.972717 
	C86.995750,298.972717 86.991966,298.599731 86.991470,298.413269 
	C91.382935,297.488617 95.774902,296.750427 100.575226,296.061157 
	C101.210693,299.928925 99.192856,301.403564 95.399628,300.869934 
	C94.122330,300.997711 93.061523,301.505951 92.000732,302.014221 
	C91.834015,302.014252 91.667297,302.014313 91.213837,301.712830 
	C89.614922,301.266724 88.302757,301.122131 86.990593,300.977539 
z"/>
<path fill="#848484" opacity="1.000000" stroke="none" 
	d="
M117.536644,295.048218 
	C117.983521,296.348938 117.983521,297.591827 117.983521,298.214355 
	C113.574631,298.466156 109.168655,298.804993 104.758781,298.867035 
	C104.160721,298.875488 103.543129,297.496918 102.975029,296.435425 
	C107.706902,295.736969 112.398338,295.363647 117.536644,295.048218 
z"/>
<path fill="#808080" opacity="1.000000" stroke="none" 
	d="
M140.525223,294.072205 
	C137.968628,297.635010 134.583557,296.287079 131.109772,294.501099 
	C134.042191,294.088196 137.058853,294.056213 140.525223,294.072205 
z"/>
<path fill="#808080" opacity="1.000000" stroke="none" 
	d="
M147.711578,294.144470 
	C147.927231,294.222015 147.589142,294.546173 147.589142,294.546173 
	C147.589142,294.546173 147.176224,294.417053 147.108444,294.268555 
	C147.040665,294.120087 147.495926,294.066925 147.711578,294.144470 
z"/>
<path fill="#808080" opacity="1.000000" stroke="none" 
	d="
M124.733818,294.093445 
	C124.961029,294.120087 124.695038,294.509796 124.695038,294.509796 
	C124.695038,294.509796 124.263252,294.486450 124.169579,294.353790 
	C124.075905,294.221130 124.506607,294.066772 124.733818,294.093445 
z"/>
<path fill="#808080" opacity="1.000000" stroke="none" 
	d="
M119.277420,325.892151 
	C119.304779,325.752075 119.556709,325.665009 119.883743,325.728912 
	C119.958847,325.879883 119.501991,325.945129 119.277420,325.892151 
z"/>
<path fill="#808080" opacity="1.000000" stroke="none" 
	d="
M153.266174,325.906555 
	C153.161133,325.482422 153.393845,325.360229 153.830597,325.646057 
	C153.924164,325.778839 153.493408,325.933197 153.266174,325.906555 
z"/>
<path fill="#4B8BBE" opacity="1.000000" stroke="none" 
	d="
M43.576321,70.097443 
	C40.175644,75.101379 36.500820,80.164978 32.489746,84.946503 
	C23.124924,96.110130 13.602287,107.141449 4.120238,118.206352 
	C3.822481,118.553818 3.268153,118.681427 2.499708,118.957184 
	C3.953179,101.947128 7.795754,85.620644 23.796410,76.104103 
	C29.451424,72.740723 36.653584,71.978645 43.576321,70.097443 
z"/>
<path fill="#4B8BBE" opacity="1.000000" stroke="none" 
	d="
M99.595169,4.097808 
	C95.184189,10.425721 90.451630,16.754620 85.517403,22.922174 
	C81.899231,27.444736 78.073257,31.806541 74.205284,36.119263 
	C73.401352,37.015621 72.004822,37.380489 70.523865,37.997505 
	C69.577667,31.056149 70.159401,24.252188 73.651016,18.081240 
	C77.985886,10.419976 85.681107,7.589112 93.463036,5.074695 
	C95.292610,4.483539 97.275032,4.365380 99.595169,4.097808 
z"/>
<path fill="#4584B6" opacity="1.000000" stroke="none" 
	d="
M70.104607,54.455803 
	C73.734131,50.428635 77.290268,46.846874 80.863960,43.282722 
	C82.948883,41.203365 85.061913,39.152176 87.570702,37.392422 
	C90.330559,40.091888 92.682007,42.487247 95.033455,44.882607 
	C91.528114,49.249451 88.026344,53.619175 84.515358,57.981480 
	C83.384857,59.386093 82.230103,60.771183 81.046188,62.497864 
	C77.548645,62.830521 74.091370,62.830521 70.038589,62.830521 
	C70.038589,60.095268 70.038589,57.501938 70.104607,54.455803 
z"/>
<path fill="#FFFFFF" opacity="1.000000" stroke="none" 
	d="
M95.459770,44.932945 
	C92.682007,42.487247 90.330559,40.091888 87.904747,37.350929 
	C85.686165,32.250889 87.591156,28.315147 90.675385,24.912748 
	C93.757797,21.512335 97.818260,20.865076 102.575516,22.075651 
	C105.260323,24.543293 107.561012,26.960043 110.014526,29.689009 
	C110.468056,36.237129 109.668823,41.956985 102.552872,44.086735 
	C100.431213,44.721729 98.113808,44.702667 95.459770,44.932945 
z"/>
<path fill="#9C9C9C" opacity="1.000000" stroke="none" 
	d="
M147.002441,317.997559 
	C144.600067,319.129181 142.197693,320.260834 139.894379,321.692749 
	C137.626602,321.998444 135.259750,322.003845 132.449707,322.001160 
	C131.528885,321.327515 131.193054,320.363861 130.545395,320.055817 
	C128.988724,319.315521 127.285873,318.882599 125.363472,317.844513 
	C127.876198,316.974762 130.421448,314.364471 133.609848,317.220886 
	C134.566223,318.077667 137.399933,316.550262 139.339523,316.669434 
	C141.911316,316.827423 144.449707,317.529358 147.002441,317.997559 
z"/>
<path fill="#FFFFFF" opacity="1.000000" stroke="none" 
	d="
M159.898499,239.386108 
	C161.301437,233.203506 163.651031,228.202362 170.619339,227.704147 
	C172.129974,227.596146 173.670639,227.907852 175.580017,228.072815 
	C178.305237,231.095505 181.901901,233.762527 182.727676,237.112549 
	C184.409180,243.934189 180.418762,249.328735 174.075821,250.897675 
	C168.611664,252.249268 162.835495,248.502899 160.577713,242.117645 
	C160.308670,241.356750 160.164627,240.551666 159.898499,239.386108 
z"/>
<path fill="#A5A5A5" opacity="1.000000" stroke="none" 
	d="
M147.250732,318.000366 
	C144.449707,317.529358 141.911316,316.827423 139.339523,316.669434 
	C137.399933,316.550262 134.566223,318.077667 133.609848,317.220886 
	C130.421448,314.364471 127.876198,316.974762 125.041611,317.680450 
	C124.998283,317.997559 124.501450,318.003479 123.984024,317.818298 
	C121.559471,316.750732 119.698456,315.742798 117.732376,315.020996 
	C115.733620,314.287201 113.450699,314.161194 111.633591,313.153442 
	C110.269928,312.397247 109.446861,310.666199 108.383125,309.369171 
	C109.811943,308.242828 111.081917,306.542511 112.698601,306.095123 
	C118.094887,304.601898 124.087929,305.490265 129.003952,301.996338 
	C133.420471,302.022430 137.837006,302.048492 142.988495,302.078308 
	C148.408112,303.384918 153.025421,305.128021 157.797684,305.858002 
	C161.963852,306.495270 163.713913,308.697937 164.594055,311.841675 
	C158.861450,313.970917 153.428543,315.988861 147.995636,318.006775 
	C147.995636,318.006775 147.499023,318.003204 147.250732,318.000366 
M122.766937,312.998230 
	C133.215973,314.017426 143.746323,315.823395 153.653641,309.806732 
	C151.664536,308.373169 149.638931,307.336792 147.516296,307.068726 
	C142.698990,306.460358 137.827026,305.868744 132.990479,305.960999 
	C129.151932,306.034271 125.294807,306.975281 121.531532,307.885010 
	C120.566154,308.118347 119.319870,309.691956 119.322983,310.646149 
	C119.325516,311.424591 120.999008,312.197601 122.766937,312.998230 
z"/>
<path fill="#9C9C9C" opacity="1.000000" stroke="none" 
	d="
M128.991119,301.605927 
	C124.087929,305.490265 118.094887,304.601898 112.698601,306.095123 
	C111.081917,306.542511 109.811943,308.242828 108.383125,309.369171 
	C109.446861,310.666199 110.269928,312.397247 111.633591,313.153442 
	C113.450699,314.161194 115.733620,314.287201 117.732376,315.020996 
	C119.698456,315.742798 121.559471,316.750732 123.735596,317.820038 
	C123.224190,318.979340 122.227577,320.902252 121.695816,320.781281 
	C113.861244,318.999420 106.036102,317.123322 98.332626,314.849731 
	C95.983200,314.156342 94.008980,312.191681 90.792252,310.119507 
	C96.390862,307.099640 99.507805,303.335327 105.521111,302.635651 
	C111.934639,301.889435 118.869797,303.005829 124.964005,299.441406 
	C125.703308,299.009003 127.611725,300.575439 128.991119,301.605927 
z"/>
<path fill="#9C9C9C" opacity="1.000000" stroke="none" 
	d="
M148.004868,318.370911 
	C153.428543,315.988861 158.861450,313.970917 164.594055,311.841675 
	C163.713913,308.697937 161.963852,306.495270 157.797684,305.858002 
	C153.025421,305.128021 148.408112,303.384918 143.359772,302.039185 
	C142.813232,299.082428 144.479782,298.664215 146.797760,299.235687 
	C147.244705,299.345886 147.616684,299.969818 148.029663,299.976746 
	C155.010101,300.094330 161.680618,303.847412 169.255096,301.383362 
	C170.111282,301.005402 170.555634,301.005585 171.000000,301.005768 
	C172.139450,302.403198 173.136856,303.955750 174.452469,305.160858 
	C176.313690,306.865723 178.409866,308.314087 180.891159,310.251129 
	C175.270737,315.218140 170.081314,317.297424 163.220566,316.681610 
	C159.453979,316.343567 155.258621,318.369202 151.604355,320.074310 
	C149.315552,321.142273 148.447403,321.316315 148.004868,318.370911 
z"/>
<path fill="#8B8B8B" opacity="1.000000" stroke="none" 
	d="
M87.036911,317.639404 
	C86.110191,317.787628 85.218704,317.586212 83.976357,317.305511 
	C83.830482,317.517578 83.284996,318.310547 82.556427,319.369659 
	C80.352371,316.263062 78.228348,313.269257 76.104332,310.275482 
	C79.559692,311.192230 77.728897,306.844208 79.977669,306.329010 
	C80.485489,306.212646 80.661049,304.645905 80.994781,303.373413 
	C82.143005,303.019440 83.286011,303.038849 84.717911,303.034210 
	C85.537430,304.358032 86.068054,305.705933 86.681847,307.265076 
	C85.271851,307.987701 83.853127,308.714783 81.738953,309.798309 
	C83.830864,311.553040 85.700081,312.909668 87.254036,314.562683 
	C87.679245,315.014984 87.158684,316.356354 87.036911,317.639404 
z"/>
<path fill="#8B8B8B" opacity="1.000000" stroke="none" 
	d="
M86.746918,301.147644 
	C88.302757,301.122131 89.614922,301.266724 90.963760,301.712219 
	C89.498833,302.446411 87.997238,302.879639 86.241348,303.148407 
	C86.159134,302.428528 86.331192,301.873169 86.746918,301.147644 
z"/>
<path fill="#8B8B8B" opacity="1.000000" stroke="none" 
	d="
M92.168716,302.240417 
	C93.061523,301.505951 94.122330,300.997711 95.092422,300.743774 
	C94.113373,301.487640 93.225037,301.977142 92.168716,302.240417 
z"/>
<path fill="#848484" opacity="1.000000" stroke="none" 
	d="
M93.194931,319.830688 
	C92.682922,319.905304 92.422394,319.722870 92.115524,319.237518 
	C91.851891,318.509674 91.695160,317.998199 91.538437,317.486755 
	C91.785507,317.386902 92.032578,317.287079 92.279648,317.187225 
	C92.648369,318.011536 93.017097,318.835815 93.194931,319.830688 
z"/>
<path fill="#848484" opacity="1.000000" stroke="none" 
	d="
M89.963562,317.707550 
	C89.950272,318.012787 89.493385,318.009064 89.265396,318.010254 
	C89.074799,317.291840 89.112183,316.572266 89.149567,315.852692 
	C89.330620,315.843658 89.511665,315.834595 89.692719,315.825562 
	C89.787430,316.351135 89.882141,316.876740 89.963562,317.707550 
z"/>
<path fill="#848484" opacity="1.000000" stroke="none" 
	d="
M170.999237,300.753784 
	C170.555634,301.005585 170.111282,301.005402 169.333389,301.005249 
	C168.999619,300.837585 168.999359,300.669922 169.000641,300.250732 
	C169.444901,299.998993 169.887619,299.998810 170.662140,299.998199 
	C170.995453,300.165802 170.996948,300.333771 170.999237,300.753784 
z"/>
<path fill="#848484" opacity="1.000000" stroke="none" 
	d="
M95.723946,318.602478 
	C95.850189,318.443939 96.069527,318.421356 96.288864,318.398743 
	C96.131592,318.511993 95.974319,318.625214 95.723946,318.602478 
z"/>
<path fill="#848484" opacity="1.000000" stroke="none" 
	d="
M97.999664,320.998779 
	C98.095062,320.962769 98.190788,320.927948 98.144478,320.946869 
	C98.002441,321.000610 98.000000,321.000000 97.999664,320.998779 
z"/>
<path fill="#808080" opacity="1.000000" stroke="none" 
	d="
M100.997391,322.002014 
	C100.873070,321.856384 100.751350,321.708679 100.629631,321.561005 
	C100.719513,321.610291 100.809395,321.659607 100.951813,321.851685 
	C101.004356,321.994446 101.000000,322.000000 100.997391,322.002014 
z"/>
<path fill="#848484" opacity="1.000000" stroke="none" 
	d="
M115.464592,321.451355 
	C115.520615,321.418579 115.408569,321.484100 115.464592,321.451355 
z"/>
<path fill="#848484" opacity="1.000000" stroke="none" 
	d="
M153.553070,298.467743 
	C153.586945,298.523346 153.519211,298.412140 153.553070,298.467743 
z"/>
<path fill="#929292" opacity="1.000000" stroke="none" 
	d="
M71.040710,306.145447 
	C75.364952,307.841461 71.025131,309.589233 71.251328,311.385773 
	C71.280319,311.616028 69.707642,312.047943 68.876945,312.386444 
	C68.477608,312.100128 68.078278,311.813812 67.678940,311.527496 
	C68.686462,309.760468 69.693993,307.993469 71.040710,306.145447 
z"/>
<path fill="#8B8B8B" opacity="1.000000" stroke="none" 
	d="
M86.993660,299.234253 
	C87.109978,299.258636 87.224213,299.544525 87.166473,299.924683 
	C86.993530,299.844543 86.992554,299.670166 86.993660,299.234253 
z"/>
<path fill="#8B8B8B" opacity="1.000000" stroke="none" 
	d="
M83.556381,300.475342 
	C83.594574,300.536713 83.518181,300.413971 83.556381,300.475342 
z"/>
<path fill="#8B8B8B" opacity="1.000000" stroke="none" 
	d="
M80.946297,302.858459 
	C80.876472,302.855652 80.752953,302.711273 80.629433,302.566925 
	C80.717148,302.616943 80.804871,302.666962 80.946297,302.858459 
z"/>
<path fill="#8F8F8F" opacity="1.000000" stroke="none" 
	d="
M175.205078,299.266388 
	C175.914078,299.153259 176.826950,299.302917 177.865692,299.728699 
	C177.130692,299.846313 176.269821,299.687744 175.205078,299.266388 
z"/>
<path fill="#848484" opacity="1.000000" stroke="none" 
	d="
M179.988586,317.246399 
	C180.098114,317.411499 180.044037,317.578461 179.989960,317.745422 
	C179.934982,317.579712 179.879990,317.414001 179.988586,317.246399 
z"/>
<path fill="#848484" opacity="1.000000" stroke="none" 
	d="
M182.781616,315.177612 
	C183.010818,315.474274 183.008865,315.899719 183.009003,316.643982 
	C182.857574,316.410675 182.704025,315.858490 182.781616,315.177612 
z"/>
<path fill="#808080" opacity="1.000000" stroke="none" 
	d="
M179.000916,319.999390 
	C178.878204,319.854401 178.754593,319.710022 178.630981,319.565674 
	C178.718811,319.616028 178.806641,319.666412 178.946533,319.859344 
	C178.998596,320.001892 179.000000,320.000000 179.000916,319.999390 
z"/>
<path fill="#808080" opacity="1.000000" stroke="none" 
	d="
M156.465820,321.448242 
	C156.525528,321.412842 156.406128,321.483612 156.465820,321.448242 
z"/>
<path fill="#808080" opacity="1.000000" stroke="none" 
	d="
M198.001816,306.998169 
	C198.515518,307.301788 199.027405,307.607239 199.539276,307.912720 
	C199.356140,308.124664 199.172989,308.336609 198.989838,308.548553 
	C198.682510,308.224152 198.375168,307.899750 198.032379,307.289490 
	C197.996948,307.003662 198.000000,307.000000 198.001816,306.998169 
z"/>
<path fill="#808080" opacity="1.000000" stroke="none" 
	d="
M197.998169,312.998169 
	C198.448196,312.353912 198.900070,311.711487 199.675964,311.034546 
	C200.000000,311.000000 200.000610,311.000458 200.000610,311.000458 
	C199.549194,311.642212 199.097778,312.283966 198.325134,312.964691 
	C198.003906,313.003662 198.000000,313.000000 197.998169,312.998169 
z"/>
<path fill="#808080" opacity="1.000000" stroke="none" 
	d="
M199.999695,310.999390 
	C200.093323,310.962799 200.187241,310.926788 200.140900,310.945618 
	C200.000610,311.000458 200.000000,311.000000 199.999695,310.999390 
z"/>
<path fill="#AFAFAF" opacity="1.000000" stroke="none" 
	d="
M122.349274,312.985596 
	C120.999008,312.197601 119.325516,311.424591 119.322983,310.646149 
	C119.319870,309.691956 120.566154,308.118347 121.531532,307.885010 
	C125.294807,306.975281 129.151932,306.034271 132.990479,305.960999 
	C137.827026,305.868744 142.698990,306.460358 147.516296,307.068726 
	C149.638931,307.336792 151.664536,308.373169 153.653641,309.806732 
	C143.746323,315.823395 133.215973,314.017426 122.349274,312.985596 
z"/>
</svg>